<svg width="110" height="142" viewBox="0 0 110 142" fill="none" xmlns="http://www.w3.org/2000/svg">
<path d="M7.48926 11.2337C7.48926 5.02951 12.5188 0 18.723 0H105.784C107.852 0 109.529 1.6765 109.529 3.74457V118.89C109.529 120.958 107.852 122.635 105.784 122.635H7.48926V11.2337Z" fill="#7E65DA"/>
<path d="M0 18.7229C0 8.38252 8.38252 0 18.7229 0H19.659V122.635H0V18.7229Z" fill="#6049B0"/>
<path d="M109.528 134.805C109.528 136.356 108.271 137.613 106.72 137.613H15.4463C6.91557 137.613 0.000116465 130.698 0 122.167C3.72893e-07 113.636 6.9155 106.721 15.4463 106.721H106.72C108.271 106.721 109.528 107.978 109.528 109.529V134.805Z" fill="#483587"/>
<g filter="url(#filter0_i_200_179)">
<path d="M109.529 131.996H17.3193C11.8907 131.996 7.48926 127.595 7.48926 122.166C7.48937 116.737 11.8907 112.337 17.3193 112.337H109.529V131.996Z" fill="#FFFAF0"/>
</g>
<path d="M88.9336 112.337H101.103V141.357L95.0185 138.081L88.9336 141.357V112.337Z" fill="#FFDE71"/>
<defs>
<filter id="filter0_i_200_179" x="7.48926" y="112.337" width="102.04" height="20.5953" filterUnits="userSpaceOnUse" color-interpolation-filters="sRGB">
<feFlood flood-opacity="0" result="BackgroundImageFix"/>
<feBlend mode="normal" in="SourceGraphic" in2="BackgroundImageFix" result="shape"/>
<feColorMatrix in="SourceAlpha" type="matrix" values="0 0 0 0 0 0 0 0 0 0 0 0 0 0 0 0 0 0 127 0" result="hardAlpha"/>
<feOffset dy="0.936144"/>
<feGaussianBlur stdDeviation="0.936144"/>
<feComposite in2="hardAlpha" operator="arithmetic" k2="-1" k3="1"/>
<feColorMatrix type="matrix" values="0 0 0 0 0.878431 0 0 0 0 0.854902 0 0 0 0 0.815686 0 0 0 0.25 0"/>
<feBlend mode="normal" in2="shape" result="effect1_innerShadow_200_179"/>
</filter>
</defs>
</svg>
