<svg width="110" height="142" viewBox="0 0 110 142" fill="none" xmlns="http://www.w3.org/2000/svg">
<path d="M7.48926 11.2337C7.48926 5.02951 12.5188 0 18.723 0H105.784C107.852 0 109.529 1.6765 109.529 3.74457V118.89C109.529 120.958 107.852 122.635 105.784 122.635H7.48926V11.2337Z" fill="#F16F6F"/>
<path d="M0.000244141 18.7229C0.000244141 8.38252 8.38277 0 18.7231 0H19.6593V122.635H0.000244141V18.7229Z" fill="#CE5656"/>
<path d="M109.53 134.805C109.53 136.356 108.272 137.613 106.721 137.613H15.4465C6.91596 137.613 0.000360599 130.698 0.000244141 122.167C0.000244514 113.636 6.91589 106.721 15.4465 106.721H106.721C108.272 106.721 109.53 107.978 109.53 109.529V134.805Z" fill="#AB4444"/>
<g filter="url(#filter0_i_200_167)">
<path d="M109.529 131.996H17.3184C11.8899 131.996 7.48926 127.595 7.48926 122.166C7.48937 116.738 11.89 112.337 17.3184 112.337H109.529V131.996Z" fill="#FFFAF0"/>
</g>
<path d="M88.9333 112.337H101.103V141.357L95.0183 138.081L88.9333 141.357V112.337Z" fill="#FFDE71"/>
<defs>
<filter id="filter0_i_200_167" x="7.48926" y="112.337" width="102.04" height="20.5953" filterUnits="userSpaceOnUse" color-interpolation-filters="sRGB">
<feFlood flood-opacity="0" result="BackgroundImageFix"/>
<feBlend mode="normal" in="SourceGraphic" in2="BackgroundImageFix" result="shape"/>
<feColorMatrix in="SourceAlpha" type="matrix" values="0 0 0 0 0 0 0 0 0 0 0 0 0 0 0 0 0 0 127 0" result="hardAlpha"/>
<feOffset dy="0.936144"/>
<feGaussianBlur stdDeviation="0.936144"/>
<feComposite in2="hardAlpha" operator="arithmetic" k2="-1" k3="1"/>
<feColorMatrix type="matrix" values="0 0 0 0 0.878431 0 0 0 0 0.854902 0 0 0 0 0.815686 0 0 0 0.25 0"/>
<feBlend mode="normal" in2="shape" result="effect1_innerShadow_200_167"/>
</filter>
</defs>
</svg>
