<svg width="138" height="132" viewBox="0 0 138 132" fill="none" xmlns="http://www.w3.org/2000/svg">
<rect x="12.7246" width="111.974" height="24.1762" rx="2.54486" fill="url(#paint0_linear_200_141)"/>
<g filter="url(#filter0_f_200_141)">
<path d="M16.5425 10.8148V3.81641H40.7186C32.872 3.81641 19.978 5.34332 18.4511 6.36127C16.9242 7.37921 16.5425 9.75441 16.5425 10.8148Z" fill="white" fill-opacity="0.8"/>
</g>
<rect x="25.4492" width="3.81729" height="24.1762" fill="#862D2D"/>
<rect x="108.157" width="3.81729" height="24.1762" fill="#862D2D"/>
<rect x="12.7246" y="81.4346" width="111.974" height="24.1762" rx="2.54486" fill="url(#paint1_linear_200_141)"/>
<g filter="url(#filter1_f_200_141)">
<path d="M16.5425 92.2503V85.252H40.7186C32.872 85.252 19.978 86.7789 18.4511 87.7968C16.9242 88.8148 16.5425 91.19 16.5425 92.2503Z" fill="white" fill-opacity="0.8"/>
</g>
<rect x="25.4492" y="81.4346" width="3.81729" height="24.1762" fill="#3B4786"/>
<rect x="108.157" y="81.4346" width="3.81729" height="24.1762" fill="#3B4786"/>
<rect x="25.4492" y="48.3525" width="111.974" height="33.0832" rx="5.08972" fill="url(#paint2_linear_200_141)"/>
<rect x="38.1741" y="48.3525" width="6.36215" height="33.0832" fill="#2F6225"/>
<rect x="64.8948" y="69.9834" width="10.1794" height="33.0832" rx="1.27243" transform="rotate(-90 64.8948 69.9834)" fill="#466B3F"/>
<rect x="118.336" y="48.3525" width="6.36215" height="33.0832" fill="#2F6225"/>
<path d="M16.543 30.5379C16.543 27.0242 19.3914 24.1758 22.9051 24.1758H125.972C127.377 24.1758 128.517 25.3152 128.517 26.7206V45.8071C128.517 47.2126 127.377 48.3519 125.972 48.3519H22.9051C19.3914 48.3519 16.543 45.5035 16.543 41.9898V30.5379Z" fill="#6370B4"/>
<g filter="url(#filter2_i_200_141)">
<path d="M21.6321 33.0829C21.6321 30.9747 23.3411 29.2656 25.4494 29.2656H128.516V43.2624H25.4494C23.3411 43.2624 21.6321 41.5533 21.6321 39.4451V33.0829Z" fill="#FFF7EE"/>
</g>
<rect x="111.975" y="29.2656" width="6.36215" height="20.3589" fill="#F2D787"/>
<path d="M0 111.973C0 108.46 2.84843 105.611 6.36215 105.611H109.429C110.834 105.611 111.974 106.751 111.974 108.156V127.243C111.974 128.648 110.834 129.787 109.429 129.787H6.36214C2.84842 129.787 0 126.939 0 123.425V111.973Z" fill="#D85A5A"/>
<g filter="url(#filter3_i_200_141)">
<path d="M5.09033 114.517C5.09033 112.409 6.79939 110.7 8.90762 110.7H111.974V124.697H8.90763C6.79939 124.697 5.09033 122.988 5.09033 120.88V114.517Z" fill="#FFF7EE"/>
</g>
<rect x="16.5425" y="110.7" width="8.90701" height="20.3589" fill="#F2D787"/>
<defs>
<filter id="filter0_f_200_141" x="14.3793" y="1.65328" width="28.5025" height="11.3243" filterUnits="userSpaceOnUse" color-interpolation-filters="sRGB">
<feFlood flood-opacity="0" result="BackgroundImageFix"/>
<feBlend mode="normal" in="SourceGraphic" in2="BackgroundImageFix" result="shape"/>
<feGaussianBlur stdDeviation="1.08157" result="effect1_foregroundBlur_200_141"/>
</filter>
<filter id="filter1_f_200_141" x="14.3793" y="83.0888" width="28.5025" height="11.3243" filterUnits="userSpaceOnUse" color-interpolation-filters="sRGB">
<feFlood flood-opacity="0" result="BackgroundImageFix"/>
<feBlend mode="normal" in="SourceGraphic" in2="BackgroundImageFix" result="shape"/>
<feGaussianBlur stdDeviation="1.08157" result="effect1_foregroundBlur_200_141"/>
</filter>
<filter id="filter2_i_200_141" x="20.3597" y="29.2656" width="108.156" height="13.9971" filterUnits="userSpaceOnUse" color-interpolation-filters="sRGB">
<feFlood flood-opacity="0" result="BackgroundImageFix"/>
<feBlend mode="normal" in="SourceGraphic" in2="BackgroundImageFix" result="shape"/>
<feColorMatrix in="SourceAlpha" type="matrix" values="0 0 0 0 0 0 0 0 0 0 0 0 0 0 0 0 0 0 127 0" result="hardAlpha"/>
<feOffset dx="-1.27243"/>
<feGaussianBlur stdDeviation="1.27243"/>
<feComposite in2="hardAlpha" operator="arithmetic" k2="-1" k3="1"/>
<feColorMatrix type="matrix" values="0 0 0 0 0.879808 0 0 0 0 0.855486 0 0 0 0 0.81636 0 0 0 0.25 0"/>
<feBlend mode="normal" in2="shape" result="effect1_innerShadow_200_141"/>
</filter>
<filter id="filter3_i_200_141" x="3.8179" y="110.7" width="108.156" height="13.9971" filterUnits="userSpaceOnUse" color-interpolation-filters="sRGB">
<feFlood flood-opacity="0" result="BackgroundImageFix"/>
<feBlend mode="normal" in="SourceGraphic" in2="BackgroundImageFix" result="shape"/>
<feColorMatrix in="SourceAlpha" type="matrix" values="0 0 0 0 0 0 0 0 0 0 0 0 0 0 0 0 0 0 127 0" result="hardAlpha"/>
<feOffset dx="-1.27243"/>
<feGaussianBlur stdDeviation="1.27243"/>
<feComposite in2="hardAlpha" operator="arithmetic" k2="-1" k3="1"/>
<feColorMatrix type="matrix" values="0 0 0 0 0.879808 0 0 0 0 0.855486 0 0 0 0 0.81636 0 0 0 0.25 0"/>
<feBlend mode="normal" in2="shape" result="effect1_innerShadow_200_141"/>
</filter>
<linearGradient id="paint0_linear_200_141" x1="65.5304" y1="6.36215" x2="65.5304" y2="26.721" gradientUnits="userSpaceOnUse">
<stop stop-color="#E77272"/>
<stop offset="1" stop-color="#C23737"/>
</linearGradient>
<linearGradient id="paint1_linear_200_141" x1="65.5304" y1="87.7967" x2="65.5304" y2="108.156" gradientUnits="userSpaceOnUse">
<stop stop-color="#6370B4"/>
<stop offset="1" stop-color="#3A4787"/>
</linearGradient>
<linearGradient id="paint2_linear_200_141" x1="78.255" y1="57.0586" x2="78.255" y2="84.9181" gradientUnits="userSpaceOnUse">
<stop stop-color="#8BBE71"/>
<stop offset="1" stop-color="#5E8C4C"/>
</linearGradient>
</defs>
</svg>
