<svg width="87" height="87" viewBox="0 0 87 87" fill="none" xmlns="http://www.w3.org/2000/svg">
<circle cx="43.5" cy="43.5" r="43.5" fill="#F8C40E"/>
<circle cx="43.5" cy="43.5" r="39.5" fill="#FFF2D9"/>
<path d="M19.5246 17.1632C24.6421 12.0458 33.5246 11.6634 32.0246 12.1633C30.5246 12.6631 24.5257 16.6632 21.5254 19.6631C18.5251 22.6629 11.5254 31.1629 12.0254 29.6631C12.5254 28.1632 15.0246 21.6632 19.5246 17.1632Z" fill="#FFFDE8"/>
<path d="M38.5334 54.0669C34.192 54.0669 30.5182 52.5629 27.5119 49.555C24.5055 46.5471 23.0016 42.8732 23 38.5334C22.9984 34.1936 24.5024 30.5198 27.5119 27.5119C30.5214 24.504 34.1952 23 38.5334 23C42.8716 23 46.5463 24.504 49.5574 27.5119C52.5685 30.5198 54.0716 34.1936 54.0669 38.5334C54.0669 40.2859 53.7881 41.9388 53.2304 43.4922C52.6728 45.0455 51.9161 46.4196 50.9602 47.6145L64.3428 60.9972C64.7809 61.4353 65 61.9929 65 62.67C65 63.3471 64.7809 63.9047 64.3428 64.3428C63.9047 64.7809 63.3471 65 62.67 65C61.9929 65 61.4353 64.7809 60.9972 64.3428L47.6145 50.9602C46.4196 51.9161 45.0455 52.6728 43.4922 53.2304C41.9388 53.788 40.2859 54.0669 38.5334 54.0669ZM38.5334 49.2873C41.5206 49.2873 44.0601 48.2422 46.152 46.152C48.2438 44.0617 49.2889 41.5222 49.2873 38.5334C49.2857 35.5446 48.2406 33.0059 46.152 30.9173C44.0633 28.8286 41.5238 27.7827 38.5334 27.7795C35.543 27.7763 33.0043 28.8222 30.9173 30.9173C28.8302 33.0123 27.7843 35.551 27.7795 38.5334C27.7747 41.5158 28.8207 44.0554 30.9173 46.152C33.0139 48.2486 35.5526 49.2937 38.5334 49.2873Z" fill="#F8C40E"/>
</svg>
