<svg width="1000" height="33" viewBox="0 0 1000 33" fill="none" xmlns="http://www.w3.org/2000/svg">
<rect width="1000" height="33" rx="5" fill="#A6834B"/>
<mask id="mask0_206_691" style="mask-type:alpha" maskUnits="userSpaceOnUse" x="0" y="0" width="1000" height="33">
<rect width="1000" height="33" rx="5" fill="#A6834B"/>
</mask>
<g mask="url(#mask0_206_691)">
<path d="M885.873 171.992C871.175 177.023 855.608 174.082 842.488 163.794C829.369 153.507 819.734 136.688 815.639 116.92C811.543 97.153 813.309 76.0009 820.562 57.9718C827.814 39.9428 839.979 26.4624 854.464 20.4035C868.949 14.3446 884.608 16.1863 898.104 25.5361C911.601 34.8859 921.868 51.0045 926.717 70.4568C931.566 89.9091 930.613 111.157 924.063 129.672C917.512 148.187 905.881 162.506 891.649 169.576L891.125 167.644C904.986 160.758 916.313 146.814 922.692 128.783C929.072 110.751 929.999 90.059 925.277 71.1152C920.555 52.1713 910.556 36.474 897.412 27.3686C884.268 18.2631 869.018 16.4696 854.912 22.3701C840.806 28.2707 828.959 41.3987 821.896 58.9565C814.834 76.5143 813.113 97.1135 817.102 116.364C821.091 135.615 830.473 151.995 843.25 162.013C856.026 172.032 871.187 174.896 885.5 169.997L885.873 171.992Z" fill="#C9AF85"/>
<path d="M884.657 166.537C871.096 171.179 856.732 168.465 844.627 158.973C832.522 149.481 823.633 133.962 819.854 115.724C816.075 97.4849 817.705 77.9685 824.396 61.3336C831.088 44.6988 842.312 32.2608 855.677 26.6704C869.041 21.0801 883.49 22.7793 895.943 31.4061C908.396 40.0329 917.868 54.9051 922.342 72.8531C926.816 90.8012 925.938 110.406 919.894 127.489C913.85 144.573 903.118 157.784 889.986 164.308L889.503 162.525C902.292 156.172 912.743 143.306 918.629 126.669C924.515 110.032 925.371 90.9395 921.014 73.4606C916.657 55.9816 907.432 41.4982 895.304 33.0969C883.177 24.6956 869.106 23.0407 856.091 28.485C843.075 33.9292 832.145 46.0421 825.628 62.2422C819.111 78.4422 817.524 97.4485 821.204 115.211C824.884 132.973 833.541 148.086 845.33 157.329C857.119 166.573 871.107 169.216 884.313 164.696L884.657 166.537Z" fill="#C9AF85"/>
<path d="M883.227 158.846C870.986 163.036 858.021 160.586 847.095 152.019C836.169 143.451 828.145 129.444 824.734 112.981C821.323 96.518 822.794 78.902 828.834 63.8869C834.874 48.8718 845.005 37.645 857.069 32.599C869.132 27.553 882.173 29.0868 893.414 36.8736C904.654 44.6604 913.205 58.0843 917.243 74.2847C921.281 90.4851 920.488 108.181 915.032 123.601C909.577 139.021 899.89 150.946 888.037 156.834L887.601 155.225C899.145 149.49 908.578 137.877 913.891 122.86C919.204 107.843 919.976 90.61 916.044 74.833C912.111 59.0561 903.784 45.983 892.837 38.3997C881.891 30.8165 869.19 29.3227 857.442 34.2369C845.694 39.151 835.828 50.0844 829.946 64.707C824.064 79.3296 822.631 96.4851 825.953 112.518C829.275 128.55 837.089 142.192 847.729 150.535C858.37 158.879 870.996 161.265 882.917 157.184L883.227 158.846Z" fill="#C9AF85"/>
<path d="M197.721 -130.82C218.766 -135.851 241.057 -132.91 259.842 -122.623C278.628 -112.335 292.423 -95.5158 298.287 -75.7485C304.152 -55.9811 301.622 -34.829 291.238 -16.8C280.853 1.22908 263.435 14.7095 242.695 20.7684C221.955 26.8273 199.533 24.9856 180.207 15.6358C160.882 6.28594 146.181 -9.83263 139.238 -29.2849C132.295 -48.7373 133.659 -69.9851 143.038 -88.5003C152.418 -107.016 169.072 -121.334 189.451 -128.404L190.201 -126.472C170.354 -119.586 154.136 -105.642 145.001 -87.6109C135.867 -69.5796 134.539 -48.8872 141.3 -29.9433C148.062 -10.9994 162.378 4.69787 181.198 13.8033C200.019 22.9087 221.855 24.7023 242.053 18.8018C262.251 12.9012 279.214 -0.226822 289.327 -17.7847C299.44 -35.3425 301.903 -55.9417 296.192 -75.1924C290.481 -94.443 277.046 -110.823 258.752 -120.841C240.457 -130.86 218.75 -133.724 198.255 -128.825L197.721 -130.82Z" fill="#C9AF85"/>
<path d="M199.462 -125.365C218.88 -130.007 239.447 -127.293 256.779 -117.801C274.112 -108.309 286.84 -92.7905 292.252 -74.5518C297.663 -56.313 295.329 -36.7966 285.747 -20.1618C276.166 -3.52688 260.094 8.91106 240.958 14.5014C221.822 20.0918 201.134 18.3925 183.303 9.76573C165.472 1.13893 151.908 -13.7332 145.502 -31.6813C139.096 -49.6293 140.354 -69.2341 149.008 -86.3175C157.662 -103.401 173.029 -116.612 191.832 -123.136L192.523 -121.353C174.211 -115 159.247 -102.134 150.819 -85.4969C142.391 -68.86 141.165 -49.7677 147.404 -32.2887C153.643 -14.8097 166.852 -0.326338 184.217 8.07497C201.582 16.4763 221.729 18.1312 240.366 12.6869C259.002 7.24265 274.653 -4.8702 283.984 -21.0703C293.315 -37.2704 295.588 -56.2767 290.318 -74.0387C285.049 -91.8007 272.653 -106.914 255.773 -116.158C238.894 -125.401 218.864 -128.044 199.954 -123.524L199.462 -125.365Z" fill="#C9AF85"/>
<path d="M199.462 -138.136C218.88 -142.778 239.447 -140.064 256.779 -130.573C274.112 -121.081 286.84 -105.562 292.252 -87.3233C297.663 -69.0845 295.329 -49.5681 285.747 -32.9333C276.166 -16.2984 260.094 -3.86042 240.958 1.72995C221.822 7.32032 201.134 5.62104 183.303 -3.00576C165.472 -11.6326 151.908 -26.5047 145.502 -44.4528C139.096 -62.4008 140.354 -82.0056 149.008 -99.089C157.662 -116.172 173.029 -129.384 191.832 -135.907L192.523 -134.124C174.211 -127.771 159.247 -114.905 150.819 -98.2684C142.391 -81.6315 141.165 -62.5391 147.404 -45.0602C153.643 -27.5812 166.852 -13.0978 184.217 -4.69651C201.582 3.7048 221.729 5.35967 240.366 -0.0845858C259.002 -5.52884 274.653 -17.6417 283.984 -33.8418C293.315 -50.0419 295.588 -69.0481 290.318 -86.8102C285.049 -104.572 272.653 -119.685 255.773 -128.929C238.894 -138.173 218.864 -140.816 199.954 -136.295L199.462 -138.136Z" fill="#C9AF85"/>
<path d="M201.51 -117.674C219.037 -121.864 237.601 -119.414 253.246 -110.847C268.891 -102.279 280.38 -88.2716 285.264 -71.8089C290.148 -55.3461 288.041 -37.7301 279.393 -22.715C270.745 -7.69997 256.238 3.52684 238.965 8.57285C221.692 13.6189 203.018 12.0851 186.924 4.29828C170.829 -3.48849 158.586 -16.9125 152.804 -33.1129C147.021 -49.3132 148.157 -67.009 155.969 -82.4289C163.78 -97.8489 177.65 -109.774 194.622 -115.662L195.247 -114.053C178.718 -108.318 165.21 -96.7052 157.603 -81.6882C149.996 -66.6713 148.89 -49.4381 154.521 -33.6611C160.152 -17.8842 172.075 -4.81108 187.749 2.77216C203.423 10.3554 221.609 11.8491 238.43 6.93501C255.252 2.02089 269.379 -8.91249 277.801 -23.5351C286.224 -38.1577 288.275 -55.3133 283.519 -71.3458C278.762 -87.3782 267.574 -101.02 252.338 -109.363C237.102 -117.707 219.023 -120.093 201.954 -116.012L201.51 -117.674Z" fill="#C9AF85"/>
</g>
</svg>
