<svg width="521" height="389" viewBox="0 0 521 389" fill="none" xmlns="http://www.w3.org/2000/svg">
<path d="M533.716 388.156C470.154 392.973 412.627 353.568 386.828 294C364.241 312.085 336.158 323.791 305.128 326.142C223.144 332.355 151.646 270.93 145.432 188.946C144.829 180.987 144.867 173.127 145.495 165.415C69.7987 163.785 6.27305 104.888 0.432531 27.823C-5.78069 -54.1612 55.6435 -125.659 137.628 -131.873C200.083 -136.606 256.452 -102.086 282.51 -49.1268C302.648 -100.839 351.019 -139.162 410.052 -143.636C492.036 -149.849 563.534 -88.425 569.748 -6.44086C571.792 20.538 566.512 46.3814 555.585 69.1365C616.758 85.6414 664.458 143.313 669.907 215.212C676.675 304.513 615.7 381.942 533.716 388.156Z" fill="white"/>
</svg>
