<svg width="575" height="247" viewBox="0 0 575 247" fill="none" xmlns="http://www.w3.org/2000/svg">
<path d="M296.955 1.88399C345.753 -7.83091 393.984 20.8811 414.664 68.2762C424.105 62.9703 434.532 59.0403 445.73 56.8109C499.348 46.1361 551.557 78.2092 567.08 129.465C570.22 128.53 573.431 127.731 576.707 127.078C633.763 115.719 689.225 152.764 700.584 209.819C711.944 266.875 674.898 322.336 617.843 333.695C574.378 342.348 531.84 322.911 509.018 287.935C499.285 325.977 468.579 357.022 427.496 365.202C406.498 369.382 385.717 367.006 367.27 359.49C353.108 373.498 334.822 383.652 313.824 387.832C272.741 396.011 232.485 379.093 208.925 347.68C201.239 388.729 169.389 422.977 125.924 431.631C68.8687 442.99 13.4066 405.946 2.04747 348.89C-9.3115 291.834 27.7337 236.373 84.7894 225.014C88.0663 224.361 91.3385 223.87 94.5969 223.531C89.3057 170.238 125.249 120.615 178.868 109.94C190.065 107.711 201.202 107.348 211.955 108.633C212.906 56.9315 246.464 11.9365 295.262 2.22112C295.544 2.1649 295.827 2.11099 296.109 2.05734C296.391 1.99877 296.673 1.94022 296.955 1.88399Z" fill="white"/>
</svg>
