<svg width="707" height="603" viewBox="0 0 707 603" fill="none" xmlns="http://www.w3.org/2000/svg">
<path d="M-80.5 0C23.8915 0 111.183 79.7409 132.84 186.353C166.803 164.607 207.179 152 250.5 152C371.174 152 469 249.826 469 370.5C469 381.926 468.122 393.148 466.432 404.101C473.689 403.373 481.051 403 488.5 403C609.174 403 707 500.826 707 621.5C707 742.174 609.174 840 488.5 840C383.643 840 296.038 766.138 274.874 667.605C236.452 730.228 167.355 772 88.5 772C-32.1742 772 -130 674.174 -130 553.5C-130 525.108 -124.584 497.981 -114.73 473.095C-219.144 455.201 -299 356.759 -299 238C-299 106.556 -201.174 0 -80.5 0Z" fill="white"/>
</svg>
